<?xml version="1.0" standalone="no"?><!DOCTYPE svg PUBLIC "-//W3C//DTD SVG 1.1//EN" "http://www.w3.org/Graphics/SVG/1.1/DTD/svg11.dtd"><svg t="1730450731097" class="icon" viewBox="0 0 1315 1024" version="1.1" xmlns="http://www.w3.org/2000/svg" p-id="14033" xmlns:xlink="http://www.w3.org/1999/xlink" width="256.8359375" height="200"><path d="M496.669405 527.26424m-496.669405 0a496.669405 496.669405 0 1 0 993.33881 0 496.669405 496.669405 0 1 0-993.33881 0Z" fill="#F5F7FA" p-id="14034"></path><path d="M1288.360436 392.832388c5.496475 0 10.463169 2.251568 14.039189 5.827588a19.82042 19.82042 0 0 1 4.900471 19.999221l-183.370344 584.745446a19.919754 19.919754 0 0 1-19.005883 13.906743H391.772827c-5.496475 0-10.463169-2.251568-14.039189-5.827587s-5.827588-8.542714-5.827588-14.039189c0-2.384013 0.463558-4.768026 1.258229-7.019594l219.991436-584.745446a19.767442 19.767442 0 0 1 18.608547-12.847182h676.662397z" fill="#2F68DD" fill-opacity="0.6" p-id="14035"></path><path d="M1104.990092 1023.933645H391.772827c-7.085817 0-13.708076-2.781349-18.740993-7.748043a26.124811 26.124811 0 0 1-7.748042-18.740992c0-3.178684 0.596003-6.357368 1.721787-9.337385l219.925212-584.745446c1.920455-5.099139 5.231584-9.403607 9.734721-12.449846a26.62148 26.62148 0 0 1 15.09875-4.701804h676.662397c7.085817 0 13.708076 2.781349 18.740992 7.748043 5.032917 4.966694 7.748043 11.655175 7.748043 18.740992 0 2.648903-0.397336 5.36403-1.192007 7.946711l-183.370344 584.745446a26.575124 26.575124 0 0 1-25.297029 18.608547z m-493.292053-624.478998c-2.715126 0-5.297807 0.794671-7.549375 2.31779-2.251568 1.52312-3.907133 3.708465-4.834249 6.224923l-219.991435 584.745446a13.019361 13.019361 0 0 0 3.046239 13.972966c2.516458 2.516458 5.827588 3.907133 9.337385 3.907133h713.217265c2.847571 0 5.562697-0.860894 7.814266-2.582681 2.317791-1.655565 3.973355-3.973355 4.834248-6.688481l183.370345-584.745446c0.397336-1.258229 0.596003-2.648903 0.596003-3.973355 0-3.509797-1.390674-6.887149-3.907133-9.337385-2.516458-2.516458-5.827588-3.907133-9.337384-3.907133H611.698039z" fill="#2F68DD" p-id="14036"></path><path d="M1144.326309 293.56473c5.496475 0 10.463169 2.251568 14.039188 5.827587s5.827588 8.542714 5.827588 14.039189l-74.434188 587.261904c-0.662226 4.966694-3.046239 9.271162-6.556036 12.383624-3.509797 3.112462-8.145378 4.966694-13.112073 4.966694H481.040874c-5.496475 0-10.463169-2.251568-14.039188-5.827588s-5.827588-8.542714-5.827588-14.039188l74.434188-587.261905c0.662226-4.966694 3.046239-9.271162 6.556036-12.383623 3.509797-3.112462 8.145378-4.966694 13.112073-4.966694h589.049914z" fill="#FFFFFF" p-id="14037"></path><path d="M1070.090788 924.665987H481.040874c-7.085817 0-13.708076-2.781349-18.740992-7.748043a26.237389 26.237389 0 0 1-7.748043-18.740992v-0.860894l74.434188-587.261904a26.469168 26.469168 0 0 1 26.224145-23.177906h589.049914c7.085817 0 13.708076 2.781349 18.740992 7.748043 5.032917 5.032917 7.748043 11.655175 7.748043 18.740992v0.860894l-74.434188 587.261904a26.469168 26.469168 0 0 1-26.224145 23.177906z m-602.294431-26.0917c0.066223 3.377352 1.456897 6.556036 3.84091 9.006272 2.516458 2.516458 5.827588 3.907133 9.337385 3.907133h589.049914c3.244907 0 6.357368-1.192007 8.741381-3.31113 2.450236-2.119123 3.973355-5.099139 4.370691-8.277823l74.367966-586.798346c-0.066223-3.377352-1.456897-6.556036-3.84091-9.006272-2.516458-2.516458-5.827588-3.907133-9.337385-3.907133H555.276395c-3.244907 0-6.357368 1.192007-8.741382 3.31113-2.450236 2.119123-3.973355 5.099139-4.370691 8.277823l-74.367965 586.798346z" fill="#2F68DD" p-id="14038"></path><path d="M457.333188 444.949564c10.728059 0 21.125005 3.708465 29.402829 10.529392l158.073316 129.796271a59.666551 59.666551 0 0 0 37.813097 13.509407h309.987931c10.992949 0 21.257451 3.84091 29.270384 10.463169 8.079156 6.556036 13.906743 15.827198 16.092088 26.62148l66.884814 325.81513c2.582681 12.516069-0.198668 24.965915-6.688482 34.833081a46.110788 46.110788 0 0 1-29.402828 19.866776c-3.046239 0.662226-6.158701 0.927116-9.337385 0.927116H399.057311c-11.456508 0-22.052122-4.172023-30.1975-11.191617s-13.906743-16.88676-15.62853-28.210822L280.651325 498.258747c-1.920455-12.648514 1.456897-24.899693 8.542714-34.435745a46.46839 46.46839 0 0 1 37.349539-18.873438h130.855833z" fill="#2F68DD" fill-opacity="0.1" p-id="14039"></path><path d="M1059.495174 1023.933645H399.057311c-12.648514 0-24.965915-4.569359-34.56819-12.780959a52.89198 52.89198 0 0 1-17.813876-32.2504L274.095289 499.252086c-2.119123-13.972966 1.324452-27.945932 9.73472-39.336217a52.646957 52.646957 0 0 1 34.700636-20.926338c2.582681-0.397336 5.297807-0.596003 7.94671-0.596003h130.855833c12.251179 0 24.171244 4.304468 33.641074 12.052511l158.073316 129.796271a53.249582 53.249582 0 0 0 33.641075 12.052511h309.987931c12.184956 0 24.038799 4.238246 33.508629 11.920066a53.223093 53.223093 0 0 1 18.409879 30.396167l66.884813 325.81513c2.847571 13.840521 0.132445 28.012154-7.68182 39.799775a52.825758 52.825758 0 0 1-44.236688 23.773909zM326.477355 451.571823c-1.986678 0-3.973355 0.132445-5.960032 0.463558a39.488529 39.488529 0 0 0-26.025477 15.694753 39.481907 39.481907 0 0 0-7.284485 29.535274l72.579956 479.6502c1.390674 9.403607 6.158701 17.946321 13.376962 24.171244 7.218262 6.224923 16.423202 9.602275 25.893032 9.602276h660.437863a39.495151 39.495151 0 0 0 33.177517-17.813876c5.827588-8.873827 7.880488-19.469441 5.761365-29.866387l-66.884813-325.81513a40.084532 40.084532 0 0 0-13.774299-22.78057 39.971954 39.971954 0 0 0-25.09836-8.940049h-309.987931c-15.297418 0-30.1975-5.36403-42.051343-15.032528l-158.073316-129.796271a39.746797 39.746797 0 0 0-25.230806-9.006272H326.477355z" fill="#2F68DD" p-id="14040"></path><path d="M672.556597 434.155282h310.120376v13.244518h-310.120376z" fill="#333333" p-id="14041"></path><path d="M689.112244 426.208572a17.774142 17.774142 0 0 1-10.595614-22.78057l2.980016-8.145378c3.377352-9.20494 13.57563-13.972966 22.78057-10.595614s13.972966 13.57563 10.595614 22.78057l-2.980016 8.145378a17.774142 17.774142 0 0 1-22.78057 10.595614zM746.725894 308.398589l-2.0529 5.695143c-2.582681 7.152039-10.529391 10.860504-17.681431 8.277823s-10.860504-10.529391-8.277823-17.681431l2.847571-7.814265c13.57563-37.349539 41.852675-63.176348 84.831135-77.281759 53.110515-15.164972 83.639128-39.336217 91.519615-72.513734 12.714737-50.262944-4.304468-86.221809-50.991392-107.942817-53.905186-21.191228-98.605433-2.185345-134.100739 57.017648l-25.893032-21.191228C731.229809 3.311129 789.704354-17.019205 862.350532 14.171634c62.779013 27.548596 84.301354 76.155975 64.5008 145.755914-11.920066 44.236688-49.004715 73.109736-111.253947 86.486699-35.495307 9.006272-58.408322 29.667719-68.739045 61.984342z" fill="#0054FF" p-id="14042"></path></svg>